<svg width="1104" height="365" xmlns="http://www.w3.org/2000/svg" xmlns:xlink="http://www.w3.org/1999/xlink" overflow="hidden">
    <defs>
        <clipPath id="clip0">
            <rect x="0" y="0" width="1104" height="365" />
        </clipPath>
        <clipPath id="clip1">
            <rect x="168" y="212" width="47" height="147" />
        </clipPath>
        <clipPath id="clip2">
            <rect x="214" y="149" width="47" height="293" />
        </clipPath>
        <clipPath id="clip3">
            <rect x="214" y="149" width="47" height="293" />
        </clipPath>
        <clipPath id="clip4">
            <rect x="260" y="212" width="47" height="147" />
        </clipPath>
        <clipPath id="clip5">
            <rect x="306" y="212" width="47" height="147" />
        </clipPath>
        <clipPath id="clip6">
            <rect x="369" y="212" width="47" height="147" />
        </clipPath>
        <clipPath id="clip7">
            <rect x="415" y="149" width="47" height="293" />
        </clipPath>
        <clipPath id="clip8">
            <rect x="415" y="149" width="47" height="293" />
        </clipPath>
        <clipPath id="clip9">
            <rect x="461" y="212" width="47" height="147" />
        </clipPath>
        <clipPath id="clip10">
            <rect x="507" y="212" width="47" height="147" />
        </clipPath>
        <clipPath id="clip11">
            <rect x="570" y="150" width="47" height="292" />
        </clipPath>
        <clipPath id="clip12">
            <rect x="570" y="150" width="47" height="292" />
        </clipPath>
        <clipPath id="clip13">
            <rect x="616" y="212" width="47" height="147" />
        </clipPath>
        <clipPath id="clip14">
            <rect x="662" y="212" width="47" height="147" />
        </clipPath>
        <clipPath id="clip15">
            <rect x="708" y="212" width="47" height="147" />
        </clipPath>
        <clipPath id="clip16">
            <rect x="899" y="211" width="47" height="147" />
        </clipPath>
        <clipPath id="clip17">
            <rect x="945" y="211" width="46" height="147" />
        </clipPath>
        <clipPath id="clip18">
            <rect x="990" y="211" width="47" height="147" />
        </clipPath>
        <clipPath id="clip19">
            <rect x="1036" y="148" width="47" height="293" />
        </clipPath>
        <clipPath id="clip20">
            <rect x="1036" y="148" width="47" height="293" />
        </clipPath>
    </defs>
    <g clip-path="url(#clip0)">
        <rect x="0" y="0" width="1104" height="365.167" fill="#FFFFFF" fill-opacity="0" />
        <path d="M4 24.6323C4 15.4485 11.4415 8.00365 20.621 8.00365L1083.38 8.00365C1092.56 8.00365 1100 15.4485 1100 24.6323L1100 339.534C1100 348.718 1092.56 356.163 1083.38 356.163L20.621 356.163C11.4415 356.163 4 348.718 4 339.534Z" fill="#A8A2C4" fill-rule="evenodd" />
        <text font-family="Calibri,Calibri_MSFontService,sans-serif" font-weight="400" font-size="21" transform="matrix(1 0 0 1.00046 234.005 340)">
            chest
            <tspan font-size="21" x="214.758" y="0">CT</tspan>
            <tspan font-size="21" x="414.123" y="0">for</tspan>
        </text>
        <path d="M267.5 193.088C267.5 188.392 271.306 184.584 276 184.584L344 184.584C348.694 184.584 352.5 188.392 352.5 193.088L352.5 227.104C352.5 231.8 348.694 235.608 344 235.608L276 235.608C271.306 235.608 267.5 231.8 267.5 227.104Z" stroke="#41719C" stroke-width="1.33333" stroke-miterlimit="8" fill="#5B9BD5" fill-rule="evenodd" />
        <text fill="#FFFFFF" font-family="Calibri,Calibri_MSFontService,sans-serif" font-weight="400" font-size="21" transform="matrix(1 0 0 1.00046 286.67 216)">LSTM</text>
        <path d="M168.451 269.854 214.376 269.854 214.376 321.077 168.451 321.077Z" fill="#ED7D31" fill-rule="evenodd" />
        <path d="M214.376 269.854 260.302 269.854 260.302 321.077 214.376 321.077Z" fill="#ED7D31" fill-rule="evenodd" />
        <path d="M260.302 269.854 306.228 269.854 306.228 321.077 260.302 321.077Z" fill="#ED7D31" fill-rule="evenodd" />
        <path d="M306.228 269.854 352.154 269.854 352.154 321.077 306.228 321.077Z" fill="#ED7D31" fill-rule="evenodd" />
        <path d="M214.376 269.187 214.376 323.078" stroke="#FFFFFF" stroke-width="1.33333" stroke-linejoin="round" stroke-miterlimit="10" fill="none" fill-rule="evenodd" />
        <path d="M260.302 269.187 260.302 323.078" stroke="#FFFFFF" stroke-width="1.33333" stroke-linejoin="round" stroke-miterlimit="10" fill="none" fill-rule="evenodd" />
        <path d="M306.228 269.187 306.228 323.078" stroke="#FFFFFF" stroke-width="1.33333" stroke-linejoin="round" stroke-miterlimit="10" fill="none" fill-rule="evenodd" />
        <path d="M168.451 269.187 168.451 323.078" stroke="#FFFFFF" stroke-width="1.33333" stroke-linejoin="round" stroke-miterlimit="10" fill="none" fill-rule="evenodd" />
        <path d="M352.154 269.187 352.154 323.078" stroke="#FFFFFF" stroke-width="1.33333" stroke-linejoin="round" stroke-miterlimit="10" fill="none" fill-rule="evenodd" />
        <path d="M167.784 269.854 352.82 269.854" stroke="#FFFFFF" stroke-width="1.33333" stroke-linejoin="round" stroke-miterlimit="10" fill="none" fill-rule="evenodd" />
        <path d="M167.784 321.077 352.82 321.077" stroke="#FFFFFF" stroke-width="4" stroke-linejoin="round" stroke-miterlimit="10" fill="none" fill-rule="evenodd" />
        <g clip-path="url(#clip1)">
            <text fill="#FFFFFF" font-family="Calibri,Calibri_MSFontService,sans-serif" font-weight="400" font-size="17" transform="matrix(1 0 0 1.00046 178.05 291)">0.2</text>
        </g>
        <g clip-path="url(#clip2)">
            <text fill="#FFFFFF" font-family="Calibri,Calibri_MSFontService,sans-serif" font-weight="400" font-size="17" transform="matrix(1 0 0 1.00046 223.976 291)">-</text>
        </g>
        <g clip-path="url(#clip3)">
            <text fill="#FFFFFF" font-family="Calibri,Calibri_MSFontService,sans-serif" font-weight="400" font-size="17" transform="matrix(1 0 0 1.00046 223.976 312)">0.3</text>
        </g>
        <g clip-path="url(#clip4)">
            <text fill="#FFFFFF" font-family="Calibri,Calibri_MSFontService,sans-serif" font-weight="400" font-size="17" transform="matrix(1 0 0 1.00046 269.902 291)">…</text>
        </g>
        <g clip-path="url(#clip5)">
            <text fill="#FFFFFF" font-family="Calibri,Calibri_MSFontService,sans-serif" font-weight="400" font-size="17" transform="matrix(1 0 0 1.00046 315.828 291)">0.7</text>
        </g>
        <path d="M369.435 269.854 415.361 269.854 415.361 321.077 369.435 321.077Z" fill="#ED7D31" fill-rule="evenodd" />
        <path d="M415.361 269.854 461.287 269.854 461.287 321.077 415.361 321.077Z" fill="#ED7D31" fill-rule="evenodd" />
        <path d="M461.287 269.854 507.212 269.854 507.212 321.077 461.287 321.077Z" fill="#ED7D31" fill-rule="evenodd" />
        <path d="M507.212 269.854 553.138 269.854 553.138 321.077 507.212 321.077Z" fill="#ED7D31" fill-rule="evenodd" />
        <path d="M415.361 269.187 415.361 323.078" stroke="#FFFFFF" stroke-width="1.33333" stroke-linejoin="round" stroke-miterlimit="10" fill="none" fill-rule="evenodd" />
        <path d="M461.287 269.187 461.287 323.078" stroke="#FFFFFF" stroke-width="1.33333" stroke-linejoin="round" stroke-miterlimit="10" fill="none" fill-rule="evenodd" />
        <path d="M507.212 269.187 507.212 323.078" stroke="#FFFFFF" stroke-width="1.33333" stroke-linejoin="round" stroke-miterlimit="10" fill="none" fill-rule="evenodd" />
        <path d="M369.435 269.187 369.435 323.078" stroke="#FFFFFF" stroke-width="1.33333" stroke-linejoin="round" stroke-miterlimit="10" fill="none" fill-rule="evenodd" />
        <path d="M553.138 269.187 553.138 323.078" stroke="#FFFFFF" stroke-width="1.33333" stroke-linejoin="round" stroke-miterlimit="10" fill="none" fill-rule="evenodd" />
        <path d="M368.769 269.854 553.805 269.854" stroke="#FFFFFF" stroke-width="1.33333" stroke-linejoin="round" stroke-miterlimit="10" fill="none" fill-rule="evenodd" />
        <path d="M368.769 321.077 553.805 321.077" stroke="#FFFFFF" stroke-width="4" stroke-linejoin="round" stroke-miterlimit="10" fill="none" fill-rule="evenodd" />
        <g clip-path="url(#clip6)">
            <text fill="#FFFFFF" font-family="Calibri,Calibri_MSFontService,sans-serif" font-weight="400" font-size="17" transform="matrix(1 0 0 1.00046 379.035 291)">0.3</text>
        </g>
        <g clip-path="url(#clip7)">
            <text fill="#FFFFFF" font-family="Calibri,Calibri_MSFontService,sans-serif" font-weight="400" font-size="17" transform="matrix(1 0 0 1.00046 424.961 291)">-</text>
        </g>
        <g clip-path="url(#clip8)">
            <text fill="#FFFFFF" font-family="Calibri,Calibri_MSFontService,sans-serif" font-weight="400" font-size="17" transform="matrix(1 0 0 1.00046 424.961 312)">0.1</text>
        </g>
        <g clip-path="url(#clip9)">
            <text fill="#FFFFFF" font-family="Calibri,Calibri_MSFontService,sans-serif" font-weight="400" font-size="17" transform="matrix(1 0 0 1.00046 470.887 291)">…</text>
        </g>
        <g clip-path="url(#clip10)">
            <text fill="#FFFFFF" font-family="Calibri,Calibri_MSFontService,sans-serif" font-weight="400" font-size="17" transform="matrix(1 0 0 1.00046 516.813 291)">0.6</text>
        </g>
        <path d="M570.42 270.237 616.345 270.237 616.345 321.46 570.42 321.46Z" fill="#ED7D31" fill-rule="evenodd" />
        <path d="M616.345 270.237 662.271 270.237 662.271 321.46 616.345 321.46Z" fill="#ED7D31" fill-rule="evenodd" />
        <path d="M662.271 270.237 708.197 270.237 708.197 321.46 662.271 321.46Z" fill="#ED7D31" fill-rule="evenodd" />
        <path d="M708.197 270.237 754.123 270.237 754.123 321.46 708.197 321.46Z" fill="#ED7D31" fill-rule="evenodd" />
        <path d="M616.345 269.57 616.345 323.461" stroke="#FFFFFF" stroke-width="1.33333" stroke-linejoin="round" stroke-miterlimit="10" fill="none" fill-rule="evenodd" />
        <path d="M662.271 269.57 662.271 323.461" stroke="#FFFFFF" stroke-width="1.33333" stroke-linejoin="round" stroke-miterlimit="10" fill="none" fill-rule="evenodd" />
        <path d="M708.197 269.57 708.197 323.461" stroke="#FFFFFF" stroke-width="1.33333" stroke-linejoin="round" stroke-miterlimit="10" fill="none" fill-rule="evenodd" />
        <path d="M570.42 269.57 570.42 323.461" stroke="#FFFFFF" stroke-width="1.33333" stroke-linejoin="round" stroke-miterlimit="10" fill="none" fill-rule="evenodd" />
        <path d="M754.123 269.57 754.123 323.461" stroke="#FFFFFF" stroke-width="1.33333" stroke-linejoin="round" stroke-miterlimit="10" fill="none" fill-rule="evenodd" />
        <path d="M569.753 270.237 754.789 270.237" stroke="#FFFFFF" stroke-width="1.33333" stroke-linejoin="round" stroke-miterlimit="10" fill="none" fill-rule="evenodd" />
        <path d="M569.753 321.46 754.789 321.46" stroke="#FFFFFF" stroke-width="4" stroke-linejoin="round" stroke-miterlimit="10" fill="none" fill-rule="evenodd" />
        <g clip-path="url(#clip11)">
            <text fill="#FFFFFF" font-family="Calibri,Calibri_MSFontService,sans-serif" font-weight="400" font-size="17" transform="matrix(1 0 0 1.00046 580.02 291)">-</text>
        </g>
        <g clip-path="url(#clip12)">
            <text fill="#FFFFFF" font-family="Calibri,Calibri_MSFontService,sans-serif" font-weight="400" font-size="17" transform="matrix(1 0 0 1.00046 580.02 312)">0.6</text>
        </g>
        <g clip-path="url(#clip13)">
            <text fill="#FFFFFF" font-family="Calibri,Calibri_MSFontService,sans-serif" font-weight="400" font-size="17" transform="matrix(1 0 0 1.00046 625.945 291)">0.4</text>
        </g>
        <g clip-path="url(#clip14)">
            <text fill="#FFFFFF" font-family="Calibri,Calibri_MSFontService,sans-serif" font-weight="400" font-size="17" transform="matrix(1 0 0 1.00046 671.871 291)">…</text>
        </g>
        <g clip-path="url(#clip15)">
            <text fill="#FFFFFF" font-family="Calibri,Calibri_MSFontService,sans-serif" font-weight="400" font-size="17" transform="matrix(1 0 0 1.00046 717.797 291)">0.1</text>
        </g>
        <path d="M899.126 268.974 945.052 268.974 945.052 320.197 899.126 320.197Z" fill="#ED7D31" fill-rule="evenodd" />
        <path d="M945.052 268.974 990.977 268.974 990.977 320.197 945.052 320.197Z" fill="#ED7D31" fill-rule="evenodd" />
        <path d="M990.977 268.974 1036.9 268.974 1036.9 320.197 990.977 320.197Z" fill="#ED7D31" fill-rule="evenodd" />
        <path d="M1036.9 268.974 1082.83 268.974 1082.83 320.197 1036.9 320.197Z" fill="#ED7D31" fill-rule="evenodd" />
        <path d="M945.052 268.307 945.052 322.198" stroke="#FFFFFF" stroke-width="1.33333" stroke-linejoin="round" stroke-miterlimit="10" fill="none" fill-rule="evenodd" />
        <path d="M990.977 268.307 990.977 322.198" stroke="#FFFFFF" stroke-width="1.33333" stroke-linejoin="round" stroke-miterlimit="10" fill="none" fill-rule="evenodd" />
        <path d="M1036.9 268.307 1036.9 322.198" stroke="#FFFFFF" stroke-width="1.33333" stroke-linejoin="round" stroke-miterlimit="10" fill="none" fill-rule="evenodd" />
        <path d="M899.126 268.307 899.126 322.198" stroke="#FFFFFF" stroke-width="1.33333" stroke-linejoin="round" stroke-miterlimit="10" fill="none" fill-rule="evenodd" />
        <path d="M1082.83 268.307 1082.83 322.198" stroke="#FFFFFF" stroke-width="1.33333" stroke-linejoin="round" stroke-miterlimit="10" fill="none" fill-rule="evenodd" />
        <path d="M898.459 268.974 1083.5 268.974" stroke="#FFFFFF" stroke-width="1.33333" stroke-linejoin="round" stroke-miterlimit="10" fill="none" fill-rule="evenodd" />
        <path d="M898.459 320.197 1083.5 320.197" stroke="#FFFFFF" stroke-width="4" stroke-linejoin="round" stroke-miterlimit="10" fill="none" fill-rule="evenodd" />
        <g clip-path="url(#clip16)">
            <text fill="#FFFFFF" font-family="Calibri,Calibri_MSFontService,sans-serif" font-weight="400" font-size="17" transform="matrix(1 0 0 1.00046 908.726 290)">0</text>
        </g>
        <g clip-path="url(#clip17)">
            <text fill="#FFFFFF" font-family="Calibri,Calibri_MSFontService,sans-serif" font-weight="400" font-size="17" transform="matrix(1 0 0 1.00046 954.652 290)">0.9</text>
        </g>
        <g clip-path="url(#clip18)">
            <text fill="#FFFFFF" font-family="Calibri,Calibri_MSFontService,sans-serif" font-weight="400" font-size="17" transform="matrix(1 0 0 1.00046 1000.58 290)">…</text>
        </g>
        <g clip-path="url(#clip19)">
            <text fill="#FFFFFF" font-family="Calibri,Calibri_MSFontService,sans-serif" font-weight="400" font-size="17" transform="matrix(1 0 0 1.00046 1046.5 290)">-</text>
        </g>
        <g clip-path="url(#clip20)">
            <text fill="#FFFFFF" font-family="Calibri,Calibri_MSFontService,sans-serif" font-weight="400" font-size="17" transform="matrix(1 0 0 1.00046 1046.5 311)">0.5</text>
        </g>
        <text font-family="Calibri,Calibri_MSFontService,sans-serif" font-weight="400" font-size="21" transform="matrix(1 0 0 1.00046 918.692 340)">recommended</text>
        <path d="M168.5 100.213C168.5 95.4239 172.38 91.5419 177.167 91.5419L245.833 91.5419C250.62 91.5419 254.5 95.4239 254.5 100.213L254.5 134.895C254.5 139.684 250.62 143.566 245.833 143.566L177.167 143.566C172.38 143.566 168.5 139.684 168.5 134.895Z" stroke="#41719C" stroke-width="1.33333" stroke-miterlimit="8" fill="#5B9BD5" fill-rule="evenodd" />
        <text fill="#FFFFFF" font-family="Calibri,Calibri_MSFontService,sans-serif" font-weight="400" font-size="21" transform="matrix(1 0 0 1.00046 188.074 124)">LSTM</text>
        <path d="M2-6.12231e-06 2.00007 24.2965-1.99993 24.2965-2 6.12231e-06ZM6.00007 22.2965 0.000104987 34.2965-5.99993 22.2965Z" transform="matrix(1 0 0 -1.00046 310 269.419)" />
        <path d="M2-1.65518e-06 2.0001 116.859-1.9999 116.859-2 1.65518e-06ZM6.00009 114.859 0.000104987 126.859-5.9999 114.859Z" transform="matrix(1 0 0 -1.00046 211 269.982)" />
        <path d="M182.5 27.346C182.5 24.1228 185.112 21.5099 188.333 21.5099L332.667 21.5099C335.888 21.5099 338.5 24.1228 338.5 27.346L338.5 50.6897C338.5 53.9129 335.888 56.5259 332.667 56.5259L188.333 56.5259C185.112 56.5259 182.5 53.9129 182.5 50.6897Z" stroke="#507E32" stroke-width="1.33333" stroke-miterlimit="8" fill="#70AD47" fill-rule="evenodd" />
        <text fill="#FFFFFF" font-family="Calibri,Calibri_MSFontService,sans-serif" font-weight="400" font-size="21" transform="matrix(1 0 0 1.00046 230.219 45)">Output</text>
        <path d="M2-6.12231e-06 2.00007 24.2965-1.99993 24.2965-2 6.12231e-06ZM6.00007 22.2965 0.000104987 34.2965-5.99993 22.2965Z" transform="matrix(1 0 0 -1.00046 211 90.3377)" />
        <path d="M2-1.65518e-06 2.0001 116.859-1.9999 116.859-2 1.65518e-06ZM6.00009 114.859 0.000104987 126.859-5.9999 114.859Z" transform="matrix(1 0 0 -1.00046 310 182.942)" />
        <path d="M468.5 192.255C468.5 187.466 472.38 183.584 477.167 183.584L544.833 183.584C549.62 183.584 553.5 187.466 553.5 192.255L553.5 226.937C553.5 231.726 549.62 235.608 544.833 235.608L477.167 235.608C472.38 235.608 468.5 231.726 468.5 226.937Z" stroke="#41719C" stroke-width="1.33333" stroke-miterlimit="8" fill="#5B9BD5" fill-rule="evenodd" />
        <text fill="#FFFFFF" font-family="Calibri,Calibri_MSFontService,sans-serif" font-weight="400" font-size="21" transform="matrix(1 0 0 1.00046 487.654 216)">LSTM</text>
        <path d="M369.5 100.046C369.5 95.3492 373.306 91.5419 378 91.5419L447 91.5419C451.694 91.5419 455.5 95.3492 455.5 100.046L455.5 134.061C455.5 138.758 451.694 142.565 447 142.565L378 142.565C373.306 142.565 369.5 138.758 369.5 134.061Z" stroke="#41719C" stroke-width="1.33333" stroke-miterlimit="8" fill="#5B9BD5" fill-rule="evenodd" />
        <text fill="#FFFFFF" font-family="Calibri,Calibri_MSFontService,sans-serif" font-weight="400" font-size="21" transform="matrix(1 0 0 1.00046 389.058 123)">LSTM</text>
        <path d="M2-6.12231e-06 2.00007 24.2965-1.99993 24.2965-2 6.12231e-06ZM6.00007 22.2965 0.000104987 34.2965-5.99993 22.2965Z" transform="matrix(1 0 0 -1.00046 511 269.419)" />
        <path d="M2-1.65518e-06 2.0001 116.859-1.9999 116.859-2 1.65518e-06ZM6.00009 114.859 0.000104987 126.859-5.9999 114.859Z" transform="matrix(1 0 0 -1.00046 412 268.982)" />
        <path d="M383.5 26.5123C383.5 23.197 386.186 20.5094 389.5 20.5094L533.5 20.5094C536.814 20.5094 539.5 23.197 539.5 26.5123L539.5 50.523C539.5 53.8383 536.814 56.5259 533.5 56.5259L389.5 56.5259C386.186 56.5259 383.5 53.8383 383.5 50.523Z" stroke="#507E32" stroke-width="1.33333" stroke-miterlimit="8" fill="#70AD47" fill-rule="evenodd" />
        <text fill="#FFFFFF" font-family="Calibri,Calibri_MSFontService,sans-serif" font-weight="400" font-size="21" transform="matrix(1 0 0 1.00046 431.203 45)">Output</text>
        <path d="M2-6.12231e-06 2.00007 24.2965-1.99993 24.2965-2 6.12231e-06ZM6.00007 22.2965 0.000104987 34.2965-5.99993 22.2965Z" transform="matrix(1 0 0 -1.00046 412 90.3377)" />
        <path d="M2-1.65518e-06 2.0001 116.859-1.9999 116.859-2 1.65518e-06ZM6.00009 114.859 0.000104987 126.859-5.9999 114.859Z" transform="matrix(1 0 0 -1.00046 511 182.942)" />
        <path d="M669.5 193.088C669.5 188.392 673.306 184.584 678 184.584L746 184.584C750.694 184.584 754.5 188.392 754.5 193.088L754.5 227.104C754.5 231.8 750.694 235.608 746 235.608L678 235.608C673.306 235.608 669.5 231.8 669.5 227.104Z" stroke="#41719C" stroke-width="1.33333" stroke-miterlimit="8" fill="#5B9BD5" fill-rule="evenodd" />
        <text fill="#FFFFFF" font-family="Calibri,Calibri_MSFontService,sans-serif" font-weight="400" font-size="21" transform="matrix(1 0 0 1.00046 688.639 216)">LSTM</text>
        <path d="M570.5 100.213C570.5 95.4239 574.38 91.5419 579.167 91.5419L647.833 91.5419C652.62 91.5419 656.5 95.4239 656.5 100.213L656.5 134.895C656.5 139.684 652.62 143.566 647.833 143.566L579.167 143.566C574.38 143.566 570.5 139.684 570.5 134.895Z" stroke="#41719C" stroke-width="1.33333" stroke-miterlimit="8" fill="#5B9BD5" fill-rule="evenodd" />
        <text fill="#FFFFFF" font-family="Calibri,Calibri_MSFontService,sans-serif" font-weight="400" font-size="21" transform="matrix(1 0 0 1.00046 590.043 124)">LSTM</text>
        <path d="M2-6.12231e-06 2.00007 24.2965-1.99993 24.2965-2 6.12231e-06ZM6.00007 22.2965 0.000104987 34.2965-5.99993 22.2965Z" transform="matrix(1 0 0 -1.00046 712 269.419)" />
        <path d="M2-1.65518e-06 2.0001 116.859-1.9999 116.859-2 1.65518e-06ZM6.00009 114.859 0.000104987 126.859-5.9999 114.859Z" transform="matrix(1 0 0 -1.00046 613 269.982)" />
        <path d="M584.5 27.346C584.5 24.1228 587.112 21.5099 590.333 21.5099L734.667 21.5099C737.888 21.5099 740.5 24.1228 740.5 27.346L740.5 50.6897C740.5 53.9129 737.888 56.5259 734.667 56.5259L590.333 56.5259C587.112 56.5259 584.5 53.9129 584.5 50.6897Z" stroke="#507E32" stroke-width="1.33333" stroke-miterlimit="8" fill="#70AD47" fill-rule="evenodd" />
        <text fill="#FFFFFF" font-family="Calibri,Calibri_MSFontService,sans-serif" font-weight="400" font-size="21" transform="matrix(1 0 0 1.00046 632.188 45)">Output</text>
        <path d="M2-6.12231e-06 2.00007 24.2965-1.99993 24.2965-2 6.12231e-06ZM6.00007 22.2965 0.000104987 34.2965-5.99993 22.2965Z" transform="matrix(1 0 0 -1.00046 613 90.3377)" />
        <path d="M2-1.65518e-06 2.0001 116.859-1.9999 116.859-2 1.65518e-06ZM6.00009 114.859 0.000104987 126.859-5.9999 114.859Z" transform="matrix(1 0 0 -1.00046 712 182.942)" />
        <path d="M998.5 193.088C998.5 188.392 1002.31 184.584 1007 184.584L1075 184.584C1079.69 184.584 1083.5 188.392 1083.5 193.088L1083.5 227.104C1083.5 231.8 1079.69 235.608 1075 235.608L1007 235.608C1002.31 235.608 998.5 231.8 998.5 227.104Z" stroke="#41719C" stroke-width="1.33333" stroke-miterlimit="8" fill="#5B9BD5" fill-rule="evenodd" />
        <text fill="#FFFFFF" font-family="Calibri,Calibri_MSFontService,sans-serif" font-weight="400" font-size="21" transform="matrix(1 0 0 1.00046 1017.35 216)">LSTM</text>
        <path d="M899.5 100.213C899.5 95.4239 903.38 91.5419 908.167 91.5419L975.833 91.5419C980.62 91.5419 984.5 95.4239 984.5 100.213L984.5 134.895C984.5 139.684 980.62 143.566 975.833 143.566L908.167 143.566C903.38 143.566 899.5 139.684 899.5 134.895Z" stroke="#41719C" stroke-width="1.33333" stroke-miterlimit="8" fill="#5B9BD5" fill-rule="evenodd" />
        <text fill="#FFFFFF" font-family="Calibri,Calibri_MSFontService,sans-serif" font-weight="400" font-size="21" transform="matrix(1 0 0 1.00046 918.749 124)">LSTM</text>
        <path d="M2-6.12231e-06 2.00007 24.2965-1.99993 24.2965-2 6.12231e-06ZM6.00007 22.2965 0.000104987 34.2965-5.99993 22.2965Z" transform="matrix(1 0 0 -1.00046 1040 269.419)" />
        <path d="M2-1.65518e-06 2.0001 116.859-1.9999 116.859-2 1.65518e-06ZM6.00009 114.859 0.000104987 126.859-5.9999 114.859Z" transform="matrix(1 0 0 -1.00046 942 269.982)" />
        <path d="M913.5 27.346C913.5 24.1228 916.112 21.5099 919.333 21.5099L1063.67 21.5099C1066.89 21.5099 1069.5 24.1228 1069.5 27.346L1069.5 50.6897C1069.5 53.9129 1066.89 56.5259 1063.67 56.5259L919.333 56.5259C916.112 56.5259 913.5 53.9129 913.5 50.6897Z" stroke="#507E32" stroke-width="1.33333" stroke-miterlimit="8" fill="#70AD47" fill-rule="evenodd" />
        <text fill="#FFFFFF" font-family="Calibri,Calibri_MSFontService,sans-serif" font-weight="400" font-size="21" transform="matrix(1 0 0 1.00046 960.894 45)">Output</text>
        <path d="M2-6.12231e-06 2.00007 24.2965-1.99993 24.2965-2 6.12231e-06ZM6.00007 22.2965 0.000104987 34.2965-5.99993 22.2965Z" transform="matrix(1 0 0 -1.00046 942 90.3377)" />
        <path d="M2-1.65518e-06 2.0001 116.859-1.9999 116.859-2 1.65518e-06ZM6.00009 114.859 0.000104987 126.859-5.9999 114.859Z" transform="matrix(1 0 0 -1.00046 1040 182.942)" />
        <path d="M0.00861247-1.99998 4.00857-1.98276 3.99135 2.01721-0.00861247 1.99998ZM8.00854-1.96553 12.0085-1.94831 11.9913 2.05166 7.99131 2.03443ZM16.0085-1.93108 20.0084-1.91386 19.9912 2.08611 15.9912 2.06888ZM24.0084-1.89663 28.0083-1.87941 27.9911 2.12056 23.9912 2.10333ZM32.0083-1.86218 36.0083-1.84496 35.9911 2.15501 31.9911 2.13778ZM40.0082-1.82773 44.0082-1.81051 43.991 2.18946 39.991 2.17223ZM48.0082-1.79328 52.0081-1.77606 51.9909 2.22391 47.9909 2.20668ZM56.0081-1.75883 60.0081-1.74161 59.9908 2.25836 55.9909 2.24113ZM64.008-1.72438 68.008-1.70716 67.9907 2.29281 63.9908 2.27558ZM72.0079-1.68993 76.0079-1.67271 75.9907 2.32726 71.9907 2.31003ZM80.0079-1.65548 84.0078-1.63826 83.9906 2.36171 79.9906 2.34448ZM88.0078-1.62103 92.0078-1.60381 91.9905 2.39616 87.9906 2.37893ZM96.0077-1.58658 100.008-1.56936 99.9904 2.4306 95.9905 2.41338ZM104.008-1.55213 105.887-1.54404 105.869 2.45592 103.99 2.44783ZM103.904-5.55262 115.878 0.499003 103.852 6.44727Z" fill="#595959" transform="matrix(1 0 0 -1.00046 352 209.595)" />
        <path d="M0.00861247-1.99998 4.00857-1.98276 3.99135 2.01721-0.00861247 1.99998ZM8.00854-1.96553 12.0085-1.94831 11.9913 2.05166 7.99131 2.03443ZM16.0085-1.93108 20.0084-1.91386 19.9912 2.08611 15.9912 2.06888ZM24.0084-1.89663 28.0083-1.87941 27.9911 2.12056 23.9912 2.10333ZM32.0083-1.86218 36.0083-1.84496 35.9911 2.15501 31.9911 2.13778ZM40.0082-1.82773 44.0082-1.81051 43.991 2.18946 39.991 2.17223ZM48.0082-1.79328 52.0081-1.77606 51.9909 2.22391 47.9909 2.20668ZM56.0081-1.75883 60.0081-1.74161 59.9908 2.25836 55.9909 2.24113ZM64.008-1.72438 68.008-1.70716 67.9907 2.29281 63.9908 2.27558ZM72.0079-1.68993 76.0079-1.67271 75.9907 2.32726 71.9907 2.31003ZM80.0079-1.65548 84.0078-1.63826 83.9906 2.36171 79.9906 2.34448ZM88.0078-1.62103 92.0078-1.60381 91.9905 2.39616 87.9906 2.37893ZM96.0077-1.58658 100.008-1.56936 99.9904 2.4306 95.9905 2.41338ZM104.008-1.55213 105.887-1.54404 105.869 2.45592 103.99 2.44783ZM103.904-5.55262 115.878 0.499003 103.852 6.44727Z" fill="#595959" transform="matrix(1 0 0 -1.00046 553 210.595)" />
        <path d="M0.00861247-1.99998 4.00857-1.98276 3.99135 2.01721-0.00861247 1.99998ZM8.00854-1.96553 12.0085-1.94831 11.9913 2.05166 7.99131 2.03443ZM16.0085-1.93108 20.0084-1.91386 19.9912 2.08611 15.9912 2.06888ZM24.0084-1.89663 28.0083-1.87941 27.9911 2.12056 23.9912 2.10333ZM32.0083-1.86218 36.0083-1.84496 35.9911 2.15501 31.9911 2.13778ZM40.0082-1.82773 44.0082-1.81051 43.991 2.18946 39.991 2.17223ZM48.0082-1.79328 52.0081-1.77606 51.9909 2.22391 47.9909 2.20668ZM56.0081-1.75883 60.0081-1.74161 59.9908 2.25836 55.9909 2.24113ZM64.008-1.72438 68.008-1.70716 67.9907 2.29281 63.9908 2.27558ZM72.0079-1.68993 76.0079-1.67271 75.9907 2.32726 71.9907 2.31003ZM80.0079-1.65548 84.0078-1.63826 83.9906 2.36171 79.9906 2.34448ZM88.0078-1.62103 92.0078-1.60381 91.9905 2.39616 87.9906 2.37893ZM96.0077-1.58658 100.008-1.56936 99.9904 2.4306 95.9905 2.41338ZM104.008-1.55213 105.887-1.54404 105.869 2.45592 103.99 2.44783ZM103.904-5.55262 115.878 0.499003 103.852 6.44727Z" fill="#595959" transform="matrix(1 0 0 -1.00046 152 209.595)" />
        <path d="M870 208.095 874 208.095 874 212.097 870 212.097ZM878 208.095 882 208.095 882 212.097 878 212.097ZM886 208.095 890 208.095 890 212.097 886 212.097ZM894 208.095 898 208.095 898 212.097 894 212.097ZM902 208.095 906 208.095 906 212.097 902 212.097ZM910 208.095 914 208.095 914 212.097 910 212.097ZM918 208.095 922 208.095 922 212.097 918 212.097ZM926 208.095 930 208.095 930 212.097 926 212.097ZM934 208.095 938 208.095 938 212.097 934 212.097ZM942 208.095 946 208.095 946 212.097 942 212.097ZM950 208.095 954 208.095 954 212.097 950 212.097ZM958 208.095 962 208.095 962 212.097 958 212.097ZM966 208.095 970 208.095 970 212.097 966 212.097ZM974 208.095 978 208.095 978 212.097 974 212.097ZM982 208.095 986 208.095 986 212.097 982 212.097ZM985.965 204.093 997.965 210.096 985.965 216.099Z" fill="#595959" />
        <path d="M369.869 119.554 365.869 119.536 365.887 115.535 369.887 115.552ZM361.869 119.519 357.869 119.502 357.887 115.5 361.887 115.517ZM353.87 119.485 349.87 119.467 349.887 115.466 353.887 115.483ZM345.87 119.45 341.87 119.433 341.887 115.431 345.887 115.448ZM337.87 119.416 333.87 119.398 333.887 115.397 337.887 115.414ZM329.87 119.381 325.87 119.364 325.887 115.362 329.887 115.379ZM321.87 119.347 317.87 119.33 317.887 115.328 321.887 115.345ZM313.87 119.312 309.87 119.295 309.887 115.293 313.887 115.311ZM305.87 119.278 301.87 119.261 301.887 115.259 305.887 115.276ZM297.87 119.243 293.87 119.226 293.887 115.224 297.887 115.242ZM289.87 119.209 285.87 119.192 285.887 115.19 289.887 115.207ZM281.87 119.174 277.87 119.157 277.887 115.155 281.887 115.173ZM273.87 119.14 269.87 119.123 269.888 115.121 273.888 115.138ZM265.87 119.106 263.991 119.097 264.009 115.096 265.888 115.104ZM265.974 123.108 254 117.053 266.026 111.102Z" fill="#595959" />
        <path d="M571.869 119.554 567.869 119.536 567.887 115.535 571.887 115.552ZM563.869 119.519 559.87 119.502 559.887 115.5 563.887 115.517ZM555.87 119.485 551.87 119.467 551.887 115.466 555.887 115.483ZM547.87 119.45 543.87 119.433 543.887 115.431 547.887 115.448ZM539.87 119.416 535.87 119.398 535.887 115.397 539.887 115.414ZM531.87 119.381 527.87 119.364 527.887 115.362 531.887 115.379ZM523.87 119.347 519.87 119.33 519.887 115.328 523.887 115.345ZM515.87 119.312 511.87 119.295 511.887 115.293 515.887 115.311ZM507.87 119.278 503.87 119.261 503.887 115.259 507.887 115.276ZM499.87 119.243 495.87 119.226 495.887 115.224 499.887 115.242ZM491.87 119.209 487.87 119.192 487.887 115.19 491.887 115.207ZM483.87 119.174 479.87 119.157 479.887 115.155 483.887 115.173ZM475.87 119.14 471.87 119.123 471.888 115.121 475.888 115.138ZM467.87 119.106 465.991 119.097 466.009 115.096 467.888 115.104ZM467.974 123.108 456 117.053 468.026 111.102Z" fill="#595959" />
        <path d="M772.869 121.554 768.869 121.537 768.887 117.535 772.887 117.553ZM764.869 121.52 760.87 121.503 760.887 117.501 764.887 117.518ZM756.87 121.486 752.87 121.468 752.887 117.467 756.887 117.484ZM748.87 121.451 744.87 121.434 744.887 117.432 748.887 117.449ZM740.87 121.417 736.87 121.399 736.887 117.398 740.887 117.415ZM732.87 121.382 728.87 121.365 728.887 117.363 732.887 117.38ZM724.87 121.348 720.87 121.33 720.887 117.329 724.887 117.346ZM716.87 121.313 712.87 121.296 712.887 117.294 716.887 117.311ZM708.87 121.279 704.87 121.262 704.887 117.26 708.887 117.277ZM700.87 121.244 696.87 121.227 696.887 117.225 700.887 117.243ZM692.87 121.21 688.87 121.193 688.887 117.191 692.887 117.208ZM684.87 121.175 680.87 121.158 680.887 117.156 684.887 117.174ZM676.87 121.141 672.87 121.124 672.888 117.122 676.888 117.139ZM668.87 121.106 666.991 121.098 667.009 117.097 668.888 117.105ZM668.974 125.109 657 119.054 669.026 113.103Z" fill="#595959" />
        <path d="M0 0 37.9825 0.000104987" stroke="#595959" stroke-width="4" stroke-miterlimit="8" stroke-dasharray="4 4" fill="none" fill-rule="evenodd" transform="matrix(-1 0 0 1.00046 898.982 120.055)" />
        <path d="M0 0 39.6609 0.000104987" stroke="#595959" stroke-width="4" stroke-miterlimit="8" stroke-dasharray="4 4" fill="none" fill-rule="evenodd" transform="matrix(-1 0 0 1.00046 790.661 210.096)" />
        <text font-family="Calibri,Calibri_MSFontService,sans-serif" font-weight="700" font-size="21" transform="matrix(1 0 0 1.00046 819.364 340)">
            …
            <tspan font-size="21" x="0" y="-131.94">…</tspan>
            <tspan font-size="21" x="0.454285" y="-221.899">…</tspan>
            <tspan font-size="21" x="0.454285" y="-296.864">…</tspan>
        </text>
        <path d="M1.96856e-06-2 4-2 4 2-1.96856e-06 2ZM8-1.99999 12-1.99999 12 2.00001 8 2.00001ZM16-1.99998 20-1.99998 20 2.00002 16 2.00002ZM24-1.99998 28-1.99997 28 2.00003 24 2.00002ZM32-1.99997 36-1.99996 36 2.00004 32 2.00003ZM40-1.99996 44-1.99996 44 2.00004 40 2.00004ZM48-1.99995 52-1.99995 52 2.00005 48 2.00005ZM56-1.99994 60-1.99994 60 2.00006 56 2.00006ZM64-1.99994 68-1.99993 68 2.00007 64 2.00006ZM72-1.99993 76-1.99993 76 2.00007 72 2.00007ZM80-1.99992 84-1.99992 84 2.00008 80 2.00008ZM88-1.99991 92-1.99991 92 2.00009 88 2.00009ZM96-1.99991 96.6634-1.9999 96.6634 2.0001 96 2.00009ZM94.6634-5.99991 106.663 0.000104987 94.6634 6.00009Z" fill="#595959" transform="matrix(-1 0 0 1.00046 1090.66 120.055)" />
        <text font-family="Calibri,Calibri_MSFontService,sans-serif" font-weight="700" font-size="21" transform="matrix(1 0 0 1.00046 819.364 286)">
            …
            <tspan font-style="italic" font-weight="400" font-size="21" x="-802.67" y="2.99863">Embedding</tspan>
            <tspan font-style="italic" font-weight="400" font-size="21" x="-802.67" y="-85.9607">Forward </tspan>
            <tspan font-style="italic" font-weight="400" font-size="21" x="-802.67" y="-60.9721">LSTM Layer</tspan>
            <tspan font-style="italic" font-weight="400" font-size="21" x="-802.67" y="-178.918">Backward </tspan>
            <tspan font-style="italic" font-weight="400" font-size="21" x="-802.67" y="-153.93">LSTM Layer</tspan>
            <tspan font-style="italic" font-weight="400" font-size="21" x="-803.282" y="-241.889">Outputs</tspan>
            <tspan font-style="italic" font-weight="400" font-size="21" x="-802.741" y="53.9753">Text</tspan>
            <tspan fill="#FF0000" font-weight="400" font-size="107" x="-577.834" y="-69.968">PLACEHOLDER</tspan>
        </text>
    </g>
</svg>